<?xml version="1.0" encoding="utf-8"?>
<!-- Generator: Adobe Illustrator 16.0.0, SVG Export Plug-In . SVG Version: 6.00 Build 0)  -->
<!DOCTYPE svg PUBLIC "-//W3C//DTD SVG 1.1//EN" "http://www.w3.org/Graphics/SVG/1.1/DTD/svg11.dtd">
<svg version="1.1" id="Layer_1" xmlns="http://www.w3.org/2000/svg" xmlns:xlink="http://www.w3.org/1999/xlink" x="0px" y="0px"
	 width="50px" height="50px" fill="#ccc" viewBox="34.5 34.5 50 50" enable-background="new 34.5 34.5 50 50" xml:space="preserve">
<path d="M70.412,61.518l3.442-2.119v14.714c0,0.951-0.771,1.722-1.722,1.722H44.017c-0.951,0-1.722-0.771-1.722-1.722V45.996
	c0-0.951,0.771-1.722,1.722-1.722h28.116c0.951,0,1.722,0.771,1.722,1.722v2.168l-3.442,2.118v-2.565H45.737v24.675h24.675V61.518z
	 M54.938,66.346c-0.369,0.228-0.854,0.113-1.081-0.257c-0.228-0.369-0.112-0.854,0.257-1.081l25.059-15.421l-1.645-2.673
	L52.023,62.609c-0.252,0.154-0.453,0.377-0.586,0.64l-1.979,3.98c-0.241,0.485-0.217,1.062,0.068,1.523
	c0.284,0.461,0.788,0.743,1.329,0.748l4.448,0.025c0.293,0.001,0.582-0.079,0.831-0.233l25.505-15.696l-1.646-2.671L54.938,66.346z
	 M84.267,50.136l-2.466-4.006c-0.455-0.738-1.424-0.97-2.162-0.515l-1.024,0.63l4.113,6.683l1.024-0.63
	C84.491,51.844,84.722,50.875,84.267,50.136z"/>
</svg>
