<?xml version="1.0" encoding="utf-8"?>
<!-- Generator: Adobe Illustrator 15.0.0, SVG Export Plug-In . SVG Version: 6.00 Build 0)  -->
<!DOCTYPE svg PUBLIC "-//W3C//DTD SVG 1.1//EN" "http://www.w3.org/Graphics/SVG/1.1/DTD/svg11.dtd">
<svg version="1.1" id="Layer_1" xmlns="http://www.w3.org/2000/svg" xmlns:xlink="http://www.w3.org/1999/xlink" x="0px" y="0px"
	 width="50px" height="50px" fill="#ccc" viewBox="0 0 50 50" enable-background="new 0 0 50 50" xml:space="preserve">
<path d="M40.998,20.612h-1.657c-0.282-0.924-0.653-1.807-1.101-2.646l1.175-1.175c1.366-1.366,1.366-3.582,0-4.949l-1.257-1.258
	c-0.657-0.656-1.547-1.025-2.477-1.025l0,0c-0.928,0-1.818,0.369-2.475,1.025l-1.176,1.175c-0.838-0.446-1.721-0.817-2.645-1.102
	V9.002c0-1.934-1.566-3.5-3.5-3.5h-1.777c-1.935,0-3.5,1.566-3.5,3.5v1.655c-0.923,0.282-1.808,0.653-2.646,1.102l-1.174-1.175
	c-1.367-1.367-3.584-1.367-4.951,0l-1.256,1.257c-1.367,1.366-1.367,3.583,0,4.949l1.174,1.175c-0.446,0.84-0.818,1.723-1.102,2.646
	H9.001c-1.934,0-3.5,1.566-3.5,3.5v1.777c0,1.932,1.566,3.5,3.5,3.5h1.654c0.283,0.922,0.654,1.807,1.102,2.645l-1.175,1.176
	c-1.366,1.365-1.366,3.582-0.001,4.949l1.258,1.258c0.656,0.656,1.547,1.023,2.475,1.023h0.001c0.929,0,1.818-0.369,2.475-1.023
	l1.176-1.176c0.837,0.447,1.722,0.818,2.644,1.102v1.656c0,1.932,1.566,3.5,3.5,3.5h1.779c1.932,0,3.5-1.568,3.5-3.5v-1.656
	c0.922-0.283,1.805-0.654,2.643-1.102l1.177,1.176c0.655,0.656,1.547,1.023,2.476,1.023c0.93,0,1.818-0.369,2.477-1.023l1.256-1.258
	c1.365-1.367,1.365-3.582,0-4.949l-1.176-1.174c0.447-0.84,0.818-1.725,1.102-2.646h1.656c1.934,0,3.5-1.568,3.5-3.5v-1.777
	C44.498,22.18,42.93,20.612,40.998,20.612z M25,33c-4.41,0-8-3.588-8-8c0-4.411,3.59-8,8-8c4.412,0,8,3.589,8,8
	C33,29.412,29.412,33,25,33z"/>
</svg>
