<?xml version="1.0" encoding="utf-8"?>
<!-- Generator: Adobe Illustrator 15.0.0, SVG Export Plug-In . SVG Version: 6.00 Build 0)  -->
<!DOCTYPE svg PUBLIC "-//W3C//DTD SVG 1.1//EN" "http://www.w3.org/Graphics/SVG/1.1/DTD/svg11.dtd">
<svg version="1.1" id="Layer_1" xmlns="http://www.w3.org/2000/svg" xmlns:xlink="http://www.w3.org/1999/xlink" x="0px" y="0px"
	 width="50px" height="50px" fill="#ccc" viewBox="0 0 50 50" enable-background="new 0 0 50 50" xml:space="preserve">
<path class="svgpath" d="M45.959,25.411c-0.292,0.78-1.039,1.298-1.873,1.298h-4.734v15.23c0,1.104-0.896,2-2,2h-8.425c-1.104,0-2-0.896-2-2v-7.381
	h-3.854v7.381c0,1.104-0.896,2-2,2h-8.424c-1.104,0-2-0.896-2-2V26.708H5.914c-0.834,0-1.58-0.517-1.873-1.298
	s-0.07-1.661,0.558-2.209L23.685,6.552c0.754-0.657,1.875-0.657,2.629,0l2.861,2.497c0.19-0.907,0.995-1.587,1.958-1.587h4.908
	c1.104,0,2,0.896,2,2v7.321l7.358,6.42C46.029,23.749,46.252,24.63,45.959,25.411z"/>
</svg>
