<?xml version="1.0" encoding="utf-8"?>
<!DOCTYPE svg PUBLIC "-//W3C//DTD SVG 1.1//EN" "http://www.w3.org/Graphics/SVG/1.1/DTD/svg11.dtd">
<svg style="width:308px;height:308px;" version="1.1" id="图形" xmlns="http://www.w3.org/2000/svg" xmlns:xlink="http://www.w3.org/1999/xlink" x="0px" y="0px" width="1056px" height="1024px"  viewBox="0 0 1056 1024" enable-background="new 0 0 1056 1024" xml:space="preserve">
  <path class="svgpath" data-index="path_0" fill="#ccc" d="M864.96 37.344l-713.696 0c-68.544 0-124.128 55.584-124.128 124.128l0 455.136c0 68.544 55.584 124.128 124.128 124.128l144.832 0 0-61.92-100.416 0c-59.52 0-107.776-46.144-107.776-103.104l0-378.208c0-56.928 48.256-103.104 107.776-103.104l619.712 0c59.52 0 107.776 46.176 107.776 103.104l0 378.176c0 56.96-48.256 103.104-107.776 103.104l-322.976 0c-1.92 1.088-4 2.592-6.016 3.808-0.448 0.192-0.768 0.576-1.216 0.768-3.36 2.08-6.496 4.096-9.76 6.56-0.256 0.256-0.576 0.32-0.8 0.544l-1.152 1.216c-3.712 2.944-7.552 5.888-10.336 9.152l0 1.568-225.728 233.6c-13.568 14.048-12.48 37.088 2.4 51.488 14.88 14.368 37.984 14.688 51.552 0.608l237.216-245.504c0.544-0.544 0.672-1.312 1.184-1.888l335.264 0c68.544 0 124.128-55.584 124.128-124.128l0-455.104c-0.064-68.544-55.648-124.128-124.192-124.128zM327.136 328.384l-77.568 0c-27.84 0-50.432 22.592-50.432 50.432s22.592 50.432 50.432 50.432l77.568 0c27.84 0 50.432-22.592 50.432-50.432s-22.592-50.432-50.432-50.432zM546.912 429.248c27.84 0 50.432-22.592 50.432-50.432s-22.592-50.432-50.432-50.432l-77.568 0c-27.84 0-50.432 22.592-50.432 50.432s22.592 50.432 50.432 50.432l77.568 0zM791.264 429.248c27.84 0 50.432-22.592 50.432-50.432s-22.592-50.432-50.432-50.432l-77.568 0c-27.84 0-50.432 22.592-50.432 50.432s22.592 50.432 50.432 50.432l77.568 0z" />

</svg>
