<?xml version="1.0" encoding="utf-8"?>
<!DOCTYPE svg PUBLIC "-//W3C//DTD SVG 1.1//EN" "http://www.w3.org/Graphics/SVG/1.1/DTD/svg11.dtd">
<svg style="width:308px;height:308px;" version="1.1" id="图形" xmlns="http://www.w3.org/2000/svg" xmlns:xlink="http://www.w3.org/1999/xlink" x="0px" y="0px" width="1024px" height="1024px" viewBox="0 0 1024 1024" enable-background="new 0 0 1024 1024" xml:space="preserve">
  <path class="svgpath" fill="#ccc"  data-index="path_0" d="M426.656 64q78.016 0 149.152 30.496t122.496 81.824 81.824 122.496 30.496 149.152q0 67.008-21.824 128.32t-62.176 111.328l242.336 242.016q12.32 12.32 12.32 30.336 0 18.336-12.16 30.496t-30.496 12.16q-18.016 0-30.336-12.32l-242.016-242.336q-50.016 40.32-111.328 62.176t-128.32 21.824q-78.016 0-149.152-30.496t-122.496-81.824-81.824-122.496-30.496-149.152 30.496-149.152 81.824-122.496 122.496-81.824 149.152-30.496zM426.656 149.344q-60.672 0-116 23.68t-95.328 63.68-63.68 95.328-23.68 116 23.68 116 63.68 95.328 95.328 63.68 116 23.68 116-23.68 95.328-63.68 63.68-95.328 23.68-116-23.68-116-63.68-95.328-95.328-63.68-116-23.68z" />

</svg>
