<?xml version="1.0" encoding="UTF-8" standalone="no"?>
<svg viewBox="0 0 282 234" version="1.1" xmlns="http://www.w3.org/2000/svg" xmlns:xlink="http://www.w3.org/1999/xlink">
    <!-- Generator: Sketch 39.1 (31720) - http://www.bohemiancoding.com/sketch -->
    <title>text</title>
    <desc>Created with Sketch.</desc>
    <defs></defs>
    <g id="Page-1" stroke="none" stroke-width="1" fill="none" fill-rule="evenodd" opacity="0.5">
        <g id="text" transform="translate(0.000000, -1.000000)" stroke="#FFFFFF">
            <g id="mixi">
                <g id="Group">
                    <g>
                        <g>
                            <path d="M16.76,29.254 L121.189,55.628" id="Shape"></path>
                            <path d="M76.669,5.922 L51.564,109.447" id="Shape"></path>
                            <path d="M67.771,42.615 L28.159,70.917" id="Shape"></path>
                            <path d="M67.771,42.615 L91.89,86.372" id="Shape"></path>
                            <path d="M26.64,70.549 L7.851,65.992" id="Shape"></path>
                            <path d="M91.89,86.372 L114.023,91.739" id="Shape"></path>
                            <ellipse id="Oval" stroke-width="0.999974865" fill="#FFFFFF" transform="translate(76.151724, 7.821261) rotate(-76.366762) translate(-76.151724, -7.821261) " cx="76.15188" cy="7.82142478" rx="6.189" ry="6.512"></ellipse>
                            <ellipse id="Oval" stroke-width="0.999974865" fill="#FFFFFF" transform="translate(16.698465, 29.275701) rotate(-76.366762) translate(-16.698465, -29.275701) " cx="16.6986205" cy="29.2758651" rx="6.189" ry="6.512"></ellipse>
                            <ellipse id="Oval" stroke-width="0.999974865" fill="#FFFFFF" transform="translate(119.563709, 55.277887) rotate(-76.366762) translate(-119.563709, -55.277887) " cx="119.563865" cy="55.2780506" rx="6.189" ry="6.512"></ellipse>
                            <ellipse id="Oval" stroke-width="0.999974865" fill="#FFFFFF" transform="translate(51.496539, 109.467880) rotate(-76.366762) translate(-51.496539, -109.467880) " cx="51.4966943" cy="109.468044" rx="6.189" ry="6.512"></ellipse>
                            <ellipse id="Oval" stroke-width="0.999974865" fill="#FFFFFF" transform="translate(7.787423, 66.012015) rotate(-76.366762) translate(-7.787423, -66.012015) " cx="7.78757826" cy="66.0121783" rx="6.189" ry="6.512"></ellipse>
                            <ellipse id="Oval" stroke-width="0.999974865" fill="#FFFFFF" transform="translate(110.894753, 91.021546) rotate(-76.366762) translate(-110.894753, -91.021546) " cx="110.894908" cy="91.0217095" rx="6.189" ry="6.512"></ellipse>
                            <ellipse id="Oval" stroke-width="0.999974865" fill="#FFFFFF" transform="translate(67.706778, 42.638779) rotate(-76.366762) translate(-67.706778, -42.638779) " cx="67.7068831" cy="42.6388894" rx="4.191" ry="4.41"></ellipse>
                            <ellipse id="Oval" stroke-width="0.999974865" fill="#FFFFFF" transform="translate(27.785848, 69.348789) rotate(-76.366762) translate(-27.785848, -69.348789) " cx="27.7859532" cy="69.3488999" rx="4.191" ry="4.41"></ellipse>
                            <ellipse id="Oval" stroke-width="0.999974865" fill="#FFFFFF" transform="translate(91.821800, 86.396139) rotate(-76.366762) translate(-91.821800, -86.396139) " cx="91.8219051" cy="86.3962498" rx="4.191" ry="4.41"></ellipse>
                        </g>
                    </g>
                </g>
                <g id="Group" transform="translate(176.000000, 83.000000)">
                    <g>
                        <g>
                            <path d="M2.758,28.694 L76.05,7.15" id="Shape"></path>
                            <path d="M73.532,6.896 L82.77,35.489" id="Shape"></path>
                            <path d="M82.77,35.489 L16.601,63.998" id="Shape"></path>
                            <path d="M7.352,28.278 L24.587,103.691" id="Shape"></path>
                            <path d="M23.992,100.573 L26.897,143.945" id="Shape"></path>
                            <path d="M54.12,56.375 L79.177,133.93" id="Shape"></path>
                            <path d="M16.161,64.735 L42.246,69.464" id="Shape"></path>
                            <path d="M23.938,102.742 L46.155,81.281" id="Shape"></path>
                            <path d="M83.43,37.532 L55.731,58.995" id="Shape"></path>
                            <path d="M55.13,58.712 L84.923,76.048" id="Shape"></path>
                            <path d="M46.3,83.222 L42.392,114.746" id="Shape"></path>
                            <path d="M63.673,87.132 L82.601,75.948" id="Shape"></path>
                            <path d="M39.634,116.097 L96.564,92.66" id="Shape"></path>
                            <circle id="Oval" fill="#FFFFFF" cx="7.352" cy="28.278" r="6.652"></circle>
                            <circle id="Oval" fill="#FFFFFF" cx="73.532" cy="6.896" r="6.652"></circle>
                            <circle id="Oval" fill="#FFFFFF" cx="26.897" cy="143.945" r="6.652"></circle>
                            <circle id="Oval" fill="#FFFFFF" cx="82.076" cy="35.134" r="6.101"></circle>
                            <circle id="Oval" fill="#FFFFFF" cx="79.211" cy="134.034" r="6.652"></circle>
                            <circle id="Oval" fill="#FFFFFF" cx="54.902" cy="58.796" r="5.776"></circle>
                            <circle id="Oval" fill="#FFFFFF" cx="98.229" cy="92.094" r="6.626"></circle>
                            <circle id="Oval" fill="#FFFFFF" cx="83.245" cy="75.19" r="5.319"></circle>
                            <circle id="Oval" fill="#FFFFFF" cx="24.375" cy="102.602" r="4.505"></circle>
                            <circle id="Oval" fill="#FFFFFF" cx="15.407" cy="64.244" r="4.505"></circle>
                            <circle id="Oval" fill="#FFFFFF" cx="42.246" cy="69.464" r="3.854"></circle>
                            <circle id="Oval" fill="#FFFFFF" cx="46.243" cy="81.554" r="3.854"></circle>
                            <circle id="Oval" fill="#FFFFFF" cx="42.392" cy="114.746" r="3.854"></circle>
                            <circle id="Oval" fill="#FFFFFF" cx="63.979" cy="86.89" r="3.459"></circle>
                            <circle id="Oval" fill="#FFFFFF" cx="69.137" cy="104.043" r="3.459"></circle>
                        </g>
                    </g>
                </g>
            </g>
        </g>
    </g>
</svg>